<svg xmlns="http://www.w3.org/2000/svg" viewBox="0 0 297 297" style="enable-background:new 0 0 297 297" xml:space="preserve">
  <path d="M113.636 272.638a10.129 10.129 0 0 1-7.168-2.97L2.967 166.123c-3.956-3.957-3.956-10.371-.001-14.329l54.673-54.703a10.14 10.14 0 0 1 14.336-.001l41.661 41.676L225.023 27.332c1.9-1.901 4.48-2.97 7.168-2.97 2.688 0 5.268 1.068 7.167 2.97l54.675 54.701c3.956 3.957 3.956 10.372 0 14.328l-173.23 173.307a10.129 10.129 0 0 1-7.167 2.97zm-89.173-113.68 89.173 89.209 158.9-158.97-40.346-40.364-111.387 111.431a10.13 10.13 0 0 1-14.335.001l-41.66-41.674-40.345 40.367z"/>
</svg>
